<svg width="60" height="60" viewBox="0 0 60 60" fill="none" xmlns="http://www.w3.org/2000/svg">
<path d="M35.429 52.5H17.5C12.786 52.5 10.4289 52.5 8.96447 51.0355C7.5 49.571 7.5 47.214 7.5 42.5V17.5C7.5 12.786 7.5 10.4289 8.96447 8.96447C10.4289 7.5 12.786 7.5 17.5 7.5H42.5C47.214 7.5 49.571 7.5 51.0355 8.96447C52.5 10.4289 52.5 12.786 52.5 17.5V35.429C52.5 36.4508 52.5 36.9618 52.3098 37.4213C52.1195 37.8805 51.758 38.242 51.0355 38.9645L38.9645 51.0355C38.242 51.758 37.8805 52.1195 37.4213 52.3098C36.9618 52.5 36.4508 52.5 35.429 52.5Z" stroke="#222222" stroke-width="3.33333"/>
<path d="M35 52.5V40.8332C35 38.0835 35 36.7085 35.8542 35.8542C36.7085 35 38.0835 35 40.8332 35H52.5" stroke="#222222" stroke-width="3.33333"/>
</svg>
