<svg width="25" height="25" viewBox="0 0 25 25" fill="none" xmlns="http://www.w3.org/2000/svg">
<path d="M11.4587 2.08325C14.3351 2.08325 16.667 4.41511 16.667 7.29159C16.667 7.86688 16.2006 8.33325 15.6253 8.33325C15.05 8.33325 14.5837 7.86688 14.5837 7.29159C14.5837 5.5657 13.1845 4.16659 11.4587 4.16659H7.292C5.56606 4.16659 4.167 5.5657 4.167 7.29159V17.7083C4.167 19.4342 5.56606 20.8333 7.292 20.8333H11.4587C13.1845 20.8333 14.5837 19.4342 14.5837 17.7083C14.5837 17.1329 15.05 16.6666 15.6253 16.6666C16.2006 16.6666 16.667 17.1329 16.667 17.7083C16.667 20.5847 14.3351 22.9166 11.4587 22.9166H7.292C4.41554 22.9166 2.08367 20.5847 2.08367 17.7083V7.29159C2.08367 4.41511 4.41554 2.08325 7.292 2.08325H11.4587Z" fill="#8B2346"/>
<path d="M10.417 11.4583C9.84168 11.4583 9.37533 11.9246 9.37533 12.4999C9.37533 13.0752 9.84168 13.5416 10.417 13.5416V11.4583Z" fill="#8B2346"/>
<path d="M19.0437 11.4583C18.9509 11.344 18.8621 11.233 18.7781 11.1271C18.5223 10.8045 18.3058 10.5212 18.153 10.3182C18.0765 10.2166 18.0157 10.1348 17.9738 10.078L17.9252 10.0121L17.9122 9.99431L17.9076 9.98799C17.9076 9.98793 17.9071 9.98726 18.7498 9.37499L17.9076 9.98799C17.5695 9.52257 17.6721 8.87042 18.1376 8.53226C18.603 8.19413 19.2543 8.29729 19.5925 8.76265L19.5955 8.76668L19.6061 8.78127L19.6496 8.8404C19.6881 8.89251 19.745 8.96909 19.8173 9.0651C19.962 9.25731 20.1677 9.52647 20.4105 9.83267C20.9014 10.4518 21.5231 11.1959 22.0906 11.7634L22.8271 12.5L22.0906 13.2366C21.5231 13.8041 20.9014 14.5482 20.4105 15.1673C20.1677 15.4735 19.962 15.7427 19.8173 15.9349C19.745 16.0309 19.6881 16.1075 19.6496 16.1596L19.6061 16.2187L19.5955 16.2333L19.593 16.2367C19.2549 16.702 18.603 16.8058 18.1376 16.4677C17.6721 16.1296 17.569 15.4781 17.9071 15.0127L18.7498 15.625C17.9071 15.0127 17.9071 15.0128 17.9071 15.0127L17.9122 15.0057L17.9252 14.9879L17.9738 14.922C18.0157 14.8651 18.0765 14.7834 18.153 14.6818C18.3058 14.4787 18.5223 14.1955 18.7781 13.8729C18.8621 13.767 18.9509 13.656 19.0437 13.5417H10.4165V11.4583H19.0437Z" fill="#8B2346"/>
</svg>
