<svg width="61" height="61" viewBox="0 0 61 61" fill="none" xmlns="http://www.w3.org/2000/svg">
<path d="M17.5058 13.1445C18.975 11.6753 19.7097 10.9406 20.6438 10.5537C21.578 10.1667 22.6169 10.1667 24.6947 10.1667H36.4122C38.5109 10.1667 39.5603 10.1667 40.502 10.5608C41.4437 10.9549 42.1803 11.7024 43.6534 13.1973L47.9082 17.5148C49.3521 18.9798 50.074 19.7124 50.4537 20.639C50.8337 21.5657 50.8337 22.5941 50.8337 24.651V36.4555C50.8337 38.5333 50.8337 39.5723 50.4468 40.5064C50.0597 41.4407 49.3252 42.1752 47.8558 43.6446L43.6448 47.8556C42.1755 49.3249 41.4409 50.0595 40.5066 50.4466C39.5725 50.8334 38.5335 50.8334 36.4557 50.8334H24.6512C22.5943 50.8334 21.5659 50.8334 20.6393 50.4534C19.7126 50.0737 18.9801 49.3519 17.5151 47.908L13.1975 43.6532C11.7026 42.1801 10.9552 41.4435 10.5611 40.5018C10.167 39.5601 10.167 38.5107 10.167 36.412V24.6945C10.167 22.6166 10.167 21.5777 10.5539 20.6436C10.9409 19.7094 11.6755 18.9748 13.1447 17.5056L17.5058 13.1445Z" stroke="#222222" stroke-width="3.33333"/>
<path d="M20.333 27.9583L21.4063 28.4948C27.1307 31.3572 33.8687 31.3572 39.593 28.4948L40.6663 27.9583" stroke="#222222" stroke-width="3.33333" stroke-linecap="round"/>
<path d="M30.5 31.7708V35.5833" stroke="#222222" stroke-width="3.33333" stroke-linecap="round"/>
<path d="M22.8753 30.5L21.6045 33.0417" stroke="#222222" stroke-width="3.33333" stroke-linecap="round"/>
<path d="M38.125 30.5L39.3958 33.0417" stroke="#222222" stroke-width="3.33333" stroke-linecap="round"/>
</svg>
