<svg width="22" height="14" viewBox="0 0 22 14" fill="none" xmlns="http://www.w3.org/2000/svg">
<path fill-rule="evenodd" clip-rule="evenodd" d="M0 1.10526C0 0.494848 0.476605 0 1.06452 0H20.9355C21.5234 0 22 0.494848 22 1.10526C22 1.71568 21.5234 2.21053 20.9355 2.21053H1.06452C0.476605 2.21053 0 1.71568 0 1.10526ZM0 7C0 6.3896 0.476605 5.89474 1.06452 5.89474H20.9355C21.5234 5.89474 22 6.3896 22 7C22 7.6104 21.5234 8.10526 20.9355 8.10526H1.06452C0.476605 8.10526 0 7.6104 0 7ZM1.06452 11.7895C0.476605 11.7895 0 12.2843 0 12.8947C0 13.5051 0.476605 14 1.06452 14H20.9355C21.5234 14 22 13.5051 22 12.8947C22 12.2843 21.5234 11.7895 20.9355 11.7895H1.06452Z" fill="#002C5F"/>
</svg>
