<svg width="25" height="25" viewBox="0 0 25 25" fill="none" xmlns="http://www.w3.org/2000/svg">
<path d="M15.1812 1.15691L14.3569 2.80546C14.3367 2.84577 14.3041 2.87847 14.2638 2.89862L12.6152 3.72289C12.4616 3.79967 12.4616 4.0188 12.6152 4.09557L14.2638 4.91984C14.3041 4.94001 14.3367 4.97269 14.3569 5.01301L15.1812 6.66156C15.2579 6.81511 15.4771 6.81511 15.5539 6.66156L16.3782 5.01301C16.3983 4.97269 16.431 4.94 16.4713 4.91984L18.1198 4.09557C18.2734 4.0188 18.2734 3.79967 18.1198 3.72289L16.4713 2.89862C16.431 2.87847 16.3983 2.84577 16.3782 2.80546L15.5539 1.15691C15.4771 1.00336 15.2579 1.00336 15.1812 1.15691Z" fill="#8B2346"/>
<path d="M20.0439 5.28357L19.2329 7.71682C19.2122 7.77903 19.1633 7.82785 19.1011 7.84858L16.6679 8.65966C16.4779 8.72297 16.4779 8.99164 16.6679 9.05495L19.1011 9.86604C19.1633 9.88676 19.2122 9.93559 19.2329 9.9978L20.0439 12.431C20.1073 12.6209 20.3759 12.6209 20.4392 12.431L21.2503 9.9978C21.2711 9.93559 21.3199 9.88676 21.3821 9.86604L23.8154 9.05495C24.0053 8.99164 24.0053 8.72297 23.8154 8.65966L21.3821 7.84858C21.3199 7.82785 21.2711 7.77903 21.2503 7.71682L20.4392 5.28357C20.3759 5.09363 20.1073 5.09363 20.0439 5.28357Z" fill="#8B2346"/>
<path fill-rule="evenodd" clip-rule="evenodd" d="M10.8415 14.2336C13.7866 17.1787 18.3875 17.4337 21.5254 14.9691C21.5643 14.9386 21.6029 14.9077 21.6414 14.8763C21.7866 14.7578 21.9284 14.6333 22.0667 14.5028C22.1228 14.4499 22.1783 14.396 22.2332 14.3411C22.7667 13.8076 23.8612 14.1228 23.7 14.8598C23.6444 15.1145 23.58 15.3664 23.5073 15.6152C23.4642 15.7627 23.4181 15.9091 23.3692 16.0545C23.3558 16.094 23.3422 16.1337 23.3284 16.1732C21.7688 20.6399 17.4884 23.9587 12.5003 23.9587C6.17206 23.9587 1.04199 18.8286 1.04199 12.5004C1.04199 7.43044 4.46997 3.10693 9.03042 1.60687L9.08624 1.58866C9.18626 1.55634 9.28681 1.52537 9.38788 1.49578C9.65615 1.41722 9.92803 1.34839 10.2031 1.28967C10.9773 1.12439 11.2939 2.2821 10.734 2.8419C10.6785 2.89744 10.624 2.95361 10.5704 3.01038C10.4645 3.12275 10.3625 3.23752 10.2644 3.35448C10.2429 3.38013 10.2216 3.40588 10.2004 3.43173C7.63539 6.57137 7.85925 11.2513 10.8415 14.2336ZM9.36836 15.7067C12.2137 18.5521 16.3257 19.4062 19.8828 18.1973C18.1546 20.4192 15.4691 21.8754 12.5003 21.8754C7.32266 21.8754 3.12533 17.6781 3.12533 12.5004C3.12533 9.47053 4.64254 6.74134 6.93843 5.01931C5.64167 8.6154 6.47678 12.8152 9.36836 15.7067Z" fill="#8B2346"/>
</svg>
