<svg width="25" height="25" viewBox="0 0 25 25" fill="none" xmlns="http://www.w3.org/2000/svg">
<path d="M13.542 20.427C13.5397 19.8754 13.3186 19.3472 12.9274 18.9583L7.292 13.3437C7.8272 13.0296 8.4066 12.7979 9.01074 12.6562C8.1597 11.7732 7.58721 10.6594 7.36459 9.45344C7.14197 8.24747 7.27905 7.00267 7.75875 5.87404C8.23846 4.74542 9.03959 3.78286 10.0624 3.10624C11.0852 2.42962 12.2844 2.06885 13.5107 2.06885C14.7371 2.06885 15.9363 2.42962 16.9591 3.10624C17.9819 3.78286 18.783 4.74542 19.2627 5.87404C19.7424 7.00267 19.8795 8.24747 19.6569 9.45344C19.4343 10.6594 18.8618 11.7732 18.0107 12.6562C19.3999 12.962 20.6432 13.7325 21.5352 14.8405C22.4273 15.9484 22.9147 17.3275 22.917 18.7499C22.917 19.855 22.478 20.9148 21.6966 21.6962C20.9152 22.4776 19.8554 22.9166 18.7503 22.9166H13.542V20.427Z" fill="#8B2346"/>
<path d="M5.30233 12.8022L12.1982 19.6876C12.3885 19.8872 12.4964 20.1514 12.5002 20.4272V21.8751C12.5002 22.1513 12.3905 22.4163 12.1951 22.6116C11.9998 22.807 11.7348 22.9167 11.4586 22.9167H10.0107C9.87357 22.9175 9.73767 22.8913 9.61076 22.8394C9.48384 22.7876 9.36841 22.7112 9.27107 22.6147L2.38566 15.7188C2.1948 15.5241 2.08789 15.2623 2.08789 14.9897C2.08789 14.717 2.1948 14.4552 2.38566 14.2605L3.84399 12.8022C4.03871 12.6113 4.3005 12.5044 4.57316 12.5044C4.84582 12.5044 5.10761 12.6113 5.30233 12.8022Z" fill="#8B2346"/>
</svg>
