<svg width="25" height="25" viewBox="0 0 25 25" fill="none" xmlns="http://www.w3.org/2000/svg">
<g clip-path="url(#clip0_96_2271)">
<path d="M10.9375 4.6875V0H14.0625V4.6875H10.9375Z" fill="#8B2346"/>
<path d="M14.0625 20.3125V25H10.9375V20.3125H14.0625Z" fill="#8B2346"/>
<path d="M17.1875 12.5C17.1875 15.0888 15.0888 17.1875 12.5 17.1875C9.91117 17.1875 7.8125 15.0888 7.8125 12.5C7.8125 9.91117 9.91117 7.8125 12.5 7.8125C15.0888 7.8125 17.1875 9.91117 17.1875 12.5Z" fill="#8B2346"/>
<path d="M0 14.0625H4.6875V10.9375H0V14.0625Z" fill="#8B2346"/>
<path d="M25 10.9375H20.3125V14.0625H25V10.9375Z" fill="#8B2346"/>
<path d="M5.8712 8.08068L2.55664 4.76612L4.76636 2.5564L8.08092 5.87096L5.8712 8.08068Z" fill="#8B2346"/>
<path d="M19.1286 16.9194L22.4433 20.234L20.2335 22.4438L16.9189 19.1291L19.1286 16.9194Z" fill="#8B2346"/>
<path d="M4.76636 22.4438L8.08092 19.1291L5.8712 16.9194L2.55664 20.2341L4.76636 22.4438Z" fill="#8B2346"/>
<path d="M20.2335 2.5564L16.9189 5.87096L19.1286 8.08068L22.4433 4.76612L20.2335 2.5564Z" fill="#8B2346"/>
</g>
<defs>
<clipPath id="clip0_96_2271">
<rect width="25" height="25" fill="white"/>
</clipPath>
</defs>
</svg>
