<svg width="20" height="12" viewBox="0 0 20 12" fill="none" xmlns="http://www.w3.org/2000/svg">
<path fill-rule="evenodd" clip-rule="evenodd" d="M5.39133 11.6203C5.70864 11.8766 6.223 11.8766 6.54031 11.6203C6.85762 11.364 6.85762 10.9485 6.54031 10.6922L3.71725 8.41206C3.06433 7.88464 2.60955 7.5166 2.28411 7.20694C1.99215 6.92921 1.84439 6.73479 1.76455 6.5625H18.9658C19.4145 6.5625 19.7783 6.26868 19.7783 5.90625C19.7783 5.54383 19.4145 5.25 18.9658 5.25H1.76455C1.84439 5.07771 1.99215 4.88329 2.28411 4.60557C2.60955 4.2959 3.06433 3.92788 3.71725 3.40043L6.54031 1.12027C6.85762 0.863978 6.85762 0.448527 6.54031 0.19224C6.223 -0.0640477 5.70864 -0.0640477 5.39133 0.19224L2.56827 2.4724L2.54368 2.49226C1.92098 2.99513 1.41875 3.40078 1.04532 3.75611C0.660739 4.12195 0.365205 4.47738 0.198372 4.8923C-0.0667198 5.55126 -0.0667198 6.26124 0.198372 6.9202C0.365205 7.33513 0.660739 7.69055 1.04532 8.05641C1.41875 8.41172 1.92098 8.81735 2.54368 9.32025L2.56827 9.34014L5.39133 11.6203Z" fill="black"/>
</svg>
